# xmcd
# 
# Track frame offsets:
#     150
#     19159
#     32213
#     44624
#     54620
#     61437
#     75873
#     81368
#     87092
#     94991
#     104032
#     112006
#     116489
#     129314
#     148573
#     167692
#     179307
#     189004
#     193319
#     200960
# 
# Disc length: 2859
# 
# Revision: 1
# Processed by: cddbd v1.5.2PL0 Copyright (c) Steve Scherf et al.
# Submitted via: fre:ac v1.0.31
# 
DISCID=1d0b2914
DTITLE=Marvin Gaye - Trouble Man Disc 2
DYEAR=2012
DGENRE=R&B
TTITLE0=Trouble Man
TTITLE1=Pool Hall
TTITLE2=''T'' Plays It Cool
TTITLE3=Cadillac Interlude - Cleo's Apartment
TTITLE4=Man Tied Up - Jimmy's West - Conversation With Cleo
TTITLE5=Crap Game (A.K.A. The Break In) - Getting Rid Of Body - Talking To Angel
TTITLE6=Outside Police Station
TTITLE7=Bowling Alley Parking Lot
TTITLE8=Stick Up
TTITLE9=Cleaners - Cleo
TTITLE10=Closing Jimmy's
TTITLE11=Police Break In
TTITLE12=''T'' Cleans Up - Police Station
TTITLE13=Packing Up - Jimmy Gets Worked - Saying Goodbye - ''T'' Breaks In - Movie Theater
TTITLE14=Car Ride - Looking For Pete
TTITLE15=Parking Garage - Elevator
TTITLE16=Penthouse
TTITLE17=Getting Pete
TTITLE18=My Name Is ''T'' - End Credits
TTITLE19=''T'' At The Cross
EXTD=
EXTT0=
EXTT1=
EXTT2=
EXTT3=
EXTT4=
EXTT5=
EXTT6=
EXTT7=
EXTT8=
EXTT9=
EXTT10=
EXTT11=
EXTT12=
EXTT13=
EXTT14=
EXTT15=
EXTT16=
EXTT17=
EXTT18=
EXTT19=
PLAYORDER=
